<?xml version="1.0" encoding="UTF-8"?>
<svg xmlns="http://www.w3.org/2000/svg" xmlns:xlink="http://www.w3.org/1999/xlink" width="30pt" height="30pt" viewBox="0 0 30 30" version="1.1">
<g id="surface1">
<path style=" stroke:none;fill-rule:nonzero;fill:rgb(0%,0%,0%);fill-opacity:1;" d="M 24.980469 25.304688 C 25.488281 24.992188 25.972656 24.648438 26.425781 24.265625 C 28.730469 22.324219 30 19.730469 30 16.960938 C 30 14.929688 29.308594 12.96875 27.996094 11.285156 C 26.8125 9.765625 25.183594 8.550781 23.273438 7.75 C 22.671875 6.367188 21.71875 5.105469 20.449219 4.035156 C 18.1875 2.132812 15.191406 1.085938 12.011719 1.085938 C 8.832031 1.085938 5.835938 2.132812 3.574219 4.035156 C 1.269531 5.976562 0 8.570312 0 11.335938 C 0 14.105469 1.269531 16.699219 3.574219 18.640625 C 4.019531 19.015625 4.492188 19.355469 4.992188 19.664062 C 4.113281 20.964844 3.09375 22.164062 1.953125 23.234375 C 3.890625 23.070312 5.757812 22.644531 7.511719 21.988281 C 9.605469 25.179688 13.574219 27.21875 17.988281 27.21875 C 18.9375 27.21875 19.871094 27.121094 20.773438 26.941406 C 23.003906 28.015625 25.460938 28.703125 28.046875 28.914062 C 26.894531 27.835938 25.863281 26.625 24.980469 25.304688 Z M 17.988281 25.460938 C 14.300781 25.460938 10.988281 23.847656 9.171875 21.304688 C 10.089844 21.492188 11.042969 21.589844 12.011719 21.589844 C 15.191406 21.589844 18.1875 20.542969 20.449219 18.640625 C 22.753906 16.699219 24.023438 14.105469 24.023438 11.335938 C 24.023438 10.902344 23.992188 10.46875 23.929688 10.042969 C 26.597656 11.621094 28.242188 14.195312 28.242188 16.960938 C 28.242188 21.648438 23.640625 25.460938 17.988281 25.460938 Z M 17.988281 25.460938 "/>
</g>
</svg>
